# xmcd
#
# Track frame offsets:
#	150
#	16336
#	32487
#	58181
#	81177
#	104804
#	123764
#	144531
#	162841
#	193151
#	211165
#	233617
#	239028
#
# Disc length: 3649 seconds
#
# Revision: 11
# Processed by: cddbd v1.5.2PL0 Copyright (c) Steve Scherf et al.
# Submitted via: Jack! The Knife 20 Magnifico
#
DISCID=b10e3f0d
DTITLE=Helloween - 7 Sinners
DYEAR=2010
DGENRE=Metal
TTITLE0=Where The Sinners Go
TTITLE1=Are You Metal?
TTITLE2=Who Is Mr. Madman?
TTITLE3=Raise The Noise
TTITLE4=World Of Fantasy
TTITLE5=Long Live The King
TTITLE6=The Smile Of The Sun
TTITLE7=You Stupid Mankind
TTITLE8=If A Mountain Could Talk
TTITLE9=The Sage, The Fool, The Sinner
TTITLE10=My Sacrifice
TTITLE11=Not Yet Today
TTITLE12=Far In The Future
EXTD=Charlie Bauerfeind
EXTT0=Andi Deris
EXTT1=Andi Deris
EXTT2=Sascha Gerstner
EXTT3=Michael Weikath
EXTT4=Markus Grosskopf
EXTT5=Andi Deris
EXTT6=Andi Deris
EXTT7=Sascha Gerstner
EXTT8=Markus Grosskopf
EXTT9=Michael Weikath
EXTT10=Sascha Gerstner
EXTT11=Andi Deris
EXTT12=Andi Deris
PLAYORDER=
